<?xml version="1.0" encoding="utf-8"?>
<!-- Generator: Adobe Illustrator 18.1.1, SVG Export Plug-In . SVG Version: 6.00 Build 0)  -->
<svg version="1.1" id="Layer_1" xmlns="http://www.w3.org/2000/svg" xmlns:xlink="http://www.w3.org/1999/xlink" x="0px" y="0px"
	 viewBox="0 0 64 64" enable-background="new 0 0 64 64" xml:space="preserve">
<g>
	<path fill="#202020" d="M52,60h-2.7L36,27.4c1.2-1.1,2-2.7,2-4.5c0-3.3-2.7-6-6-6s-6,2.7-6,6c0,1.8,0.8,3.4,2,4.5L14.7,60H12
		c-1.1,0-2,0.9-2,2s0.9,2,2,2h40c1.1,0,2-0.9,2-2S53.1,60,52,60z M32,51.3L42.5,60h-21L32,51.3z M20.9,55.3l4.1-9.9l3.9,3.3
		L20.9,55.3z M35.1,48.7l3.9-3.3l4.1,9.9L35.1,48.7z M32,21c1.1,0,2,0.9,2,2s-0.9,2-2,2s-2-0.9-2-2S30.9,21,32,21z M32,29
		c0.1,0,0.2,0,0.3,0l5.2,12.6L32,46.1l-5.4-4.5L31.7,29C31.8,29,31.9,29,32,29z"/>
	<path fill="#202020" d="M43,32c-0.4,0-0.7-0.1-1.1-0.3c-0.9-0.6-1.2-1.8-0.6-2.8c1.1-1.8,1.7-3.8,1.7-5.9c0-6.1-4.9-11-11-11
		s-11,4.9-11,11c0,2.1,0.6,4.2,1.7,5.9c0.6,0.9,0.3,2.2-0.6,2.8S20,32,19.4,31.1C17.8,28.7,17,25.9,17,23c0-8.3,6.7-15,15-15
		s15,6.7,15,15c0,2.9-0.8,5.7-2.4,8.1C44.3,31.7,43.6,32,43,32z"/>
	<path fill="#202020" d="M49.9,36c-0.4,0-0.7-0.1-1-0.3c-0.9-0.6-1.2-1.8-0.7-2.8C50,30,51,26.5,51,23c0-10.5-8.5-19-19-19
		s-19,8.5-19,19c0,3.5,1,7,2.8,10c0.6,0.9,0.3,2.2-0.7,2.8C14.2,36.3,13,36,12.4,35C10.2,31.4,9,27.3,9,23C9,10.3,19.3,0,32,0
		s23,10.3,23,23c0,4.3-1.2,8.4-3.4,12C51.2,35.7,50.6,36,49.9,36z"/>
</g>
</svg>
