<?xml version="1.0" encoding="utf-8"?>
<!-- Generator: Adobe Illustrator 18.1.1, SVG Export Plug-In . SVG Version: 6.00 Build 0)  -->
<svg version="1.1" id="Layer_1" xmlns="http://www.w3.org/2000/svg" xmlns:xlink="http://www.w3.org/1999/xlink" x="0px" y="0px"
	 viewBox="0 0 64 64" enable-background="new 0 0 64 64" xml:space="preserve">
<g>
	<path fill="#202020" d="M53.6,45.7l1.4-1.4L37.5,26.7l7.3-7.3c0.8-0.8,0.8-2,0-2.8s-2-0.8-2.8,0l-7.3,7.3L15.1,4.4l-1.4,1.4
		c-5.3,5.3-8.3,12.4-8.3,20c0,6.7,2.3,13,6.5,18.1L1.3,64h34.4l-5.1-10.1c1,0.1,2,0.2,3,0.2C41.2,54,48.3,51.1,53.6,45.7z
		 M15.1,10.1l34.2,34.2C45,48,39.5,50,33.7,50c-6.5,0-12.6-2.5-17.2-7.1S9.4,32.2,9.4,25.8C9.4,20,11.4,14.5,15.1,10.1z M29.3,60H8
		l6.9-13.1c3.2,2.8,6.9,4.9,10.9,6L29.3,60z"/>
	<path fill="#202020" d="M51.4,20c-1.1,0-2-0.9-2-2c0-3.3-2.7-6-6-6c-1.1,0-2-0.9-2-2s0.9-2,2-2c5.5,0,10,4.5,10,10
		C53.4,19.1,52.5,20,51.4,20z"/>
	<path fill="#202020" d="M59.4,20c-1.1,0-2-0.9-2-2c0-7.7-6.3-14-14-14c-1.1,0-2-0.9-2-2s0.9-2,2-2c9.9,0,18,8.1,18,18
		C61.4,19.1,60.5,20,59.4,20z"/>
</g>
</svg>
