<?xml version="1.0" encoding="utf-8"?>
<!-- Generator: Adobe Illustrator 18.1.1, SVG Export Plug-In . SVG Version: 6.00 Build 0)  -->
<svg version="1.1" id="Layer_1" xmlns="http://www.w3.org/2000/svg" xmlns:xlink="http://www.w3.org/1999/xlink" x="0px" y="0px"
	 viewBox="0 0 64 64" enable-background="new 0 0 64 64" xml:space="preserve">
<path fill="#202020" d="M62,4c-1.1,0-2,0.9-2,2v2.5L4,25.3V24c0-1.1-0.9-2-2-2s-2,0.9-2,2v16c0,1.1,0.9,2,2,2s2-0.9,2-2v-1.3l8,2.4
	V47c0,6.1,4.9,11,11,11c5.8,0,10.6-4.6,11-10.3l26,7.8V58c0,1.1,0.9,2,2,2s2-0.9,2-2V6C64,4.9,63.1,4,62,4z M30,47c0,3.9-3.1,7-7,7
	s-7-3.1-7-7v-4.7l14,4.2V47z M4,34.5v-5l56-16.8v38.6L4,34.5z"/>
</svg>
