<?xml version="1.0" encoding="utf-8"?>
<!-- Generator: Adobe Illustrator 18.1.1, SVG Export Plug-In . SVG Version: 6.00 Build 0)  -->
<svg version="1.1" id="Layer_1" xmlns="http://www.w3.org/2000/svg" xmlns:xlink="http://www.w3.org/1999/xlink" x="0px" y="0px"
	 viewBox="0 0 64 64" enable-background="new 0 0 64 64" xml:space="preserve">
<path fill="#202020" d="M62,6c-1.1,0-2,0.9-2,2v2.6L4,27.4V26c0-1.1-0.9-2-2-2c-1.1,0-2,0.9-2,2v12c0,1.1,0.9,2,2,2c1.1,0,2-0.9,2-2
	v-1.4l17,5.1V45c0,6.1,4.9,11,11,11c5,0,9.2-3.3,10.5-7.8L60,53.4V56c0,1.1,0.9,2,2,2c1.1,0,2-0.9,2-2V8C64,6.9,63.1,6,62,6z M32,52
	c-3.9,0-7-3.1-7-7v-2.1L38.7,47C37.8,49.9,35.2,52,32,52z"/>
</svg>
