<svg version="1.1" id="svgson" xmlns="http://www.w3.org/2000/svg" xmlns:xlink="http://www.w3.org/1999/xlink" x="0px" y="0px"
	 viewBox="0 0 266.7 78" enable-background="new 0 0 266.7 78" xml:space="preserve">
<path fill="#231F20" d="M26.9,39.7l20.5,8.4v3.6L23,41.3v-3.2l24.5-10.5v3.6L26.9,39.7z"/>
<path fill="#231F20" d="M66.6,39c3,1.5,4.7,3.3,4.7,6.4c0,4.6-3.8,7-9.1,7c-3.8,0-6.8-1.1-7.5-1.4l0-3.2v-2.4
	c0.8-0.1,1.6-0.4,2.4-0.4c0.1,1,0.2,2.2,0.5,3.5c1.3,0.3,2.7,0.7,4.2,0.7c2.8,0,5-1.1,5-3.4c0-1.6-1-2.5-2.4-3.3L59.5,40
	c-2.8-1.4-4.1-3.2-4.1-5.9c0-3.9,3.5-6.7,8.9-6.7c3.1,0,5.7,0.9,6.2,1.1l0,3.3v2.4c-0.8,0.1-1.6,0.4-2.4,0.4c-0.1-1-0.2-2.3-0.5-3.6
	c-0.8-0.2-1.8-0.3-2.9-0.3c-3.1,0-5,1.1-5,3.1c0,1.4,0.9,2.2,2.6,3L66.6,39z"/>
<path fill="#231F20" d="M97.8,30.7c-0.3,0.8-0.8,2.3-1.4,3.8l-7.2,17.5c-1.7,0.2-3,0.3-4.3,0.2l-7.6-18.9c-0.4-0.9-0.6-1.9-0.8-2.5
	c-0.7-0.2-1.4-0.3-2.5-0.4c0-0.8,0.2-1.6,0.4-2.4h2c1.3,0,2.5-0.2,3.8-0.3l6.5,17.2c0.3,0.8,0.6,2.2,0.8,3.1
	c1.9-5.9,4.2-11.7,6.6-17c-1.5-0.3-3.2-0.6-4.6-0.7c0-0.8,0.2-1.6,0.4-2.4h3.6h4.7h1.6c0.1,0.8,0.4,1.6,0.4,2.4
	C99.1,30.4,98.5,30.5,97.8,30.7z"/>
<path fill="#231F20" d="M118.3,48.5c4.3,0.4,6.1,2.2,6.1,5.4c0,5.4-5.3,9.1-12.5,9.1c-5.9,0-10.1-2.5-10.1-6.3c0-3,2.5-4.9,4.8-6
	c-1.8-0.9-2.9-2.3-2.9-3.9c0-2.4,2.3-3.7,3.6-4.3c-2.4-1.4-3.8-3.7-3.8-6.6c0-4.9,4-8.3,9.3-8.4c1.5,0,3,0.2,4.3,0.7
	c1.7-1,4.2-2.5,6-3c0.7,0.5,1.1,1.1,1.1,1.9c-0.9,1-2.5,1.8-3.9,2.9c1.8,1.5,2.9,3.6,2.9,5.9c0,4.4-3.9,8-10,8
	c-1.3,0-2.6-0.2-3.7-0.5c-0.8,0.4-1.5,1-1.5,2.1c0,1.3,1.2,2.2,3.8,2.4L118.3,48.5z M120.6,54.9c0-1.6-1.2-2.5-3.5-2.7l-7.3-0.7
	l-0.1,0c-1.5,0.7-3.7,2-3.7,4.2c0,2.5,2.5,4,6.6,4C117.4,59.7,120.6,57.7,120.6,54.9z M113,30.4c-3.2,0.2-5.1,2.5-5.1,5.4
	c0,3.3,2.6,5.1,5.5,5.1c3.5,0,5.4-2.6,5.4-5.4C118.7,32.2,116.1,30.2,113,30.4L113,30.4z"/>
<path fill="#231F20" d="M130.1,59.6l13.6-41.8h3.7l-13.6,41.8H130.1z"/>
<path fill="#5D5D5D" d="M160.5,39c3,1.5,4.7,3.3,4.7,6.4c0,4.6-3.8,7-9.1,7c-3.8,0-6.8-1.1-7.5-1.4l0-3.2v-2.4
	c0.8-0.1,1.6-0.4,2.4-0.4c0.1,1,0.2,2.2,0.5,3.5c1.3,0.3,2.7,0.7,4.2,0.7c2.8,0,5-1.1,5-3.4c0-1.6-1-2.5-2.4-3.3l-4.9-2.5
	c-2.8-1.4-4.1-3.2-4.1-5.9c0-3.9,3.5-6.7,8.9-6.7c3.1,0,5.7,0.9,6.2,1.1l0,3.3v2.4c-0.8,0.1-1.6,0.4-2.4,0.4c-0.1-1-0.2-2.3-0.5-3.6
	c-0.8-0.2-1.8-0.3-2.9-0.3c-3.1,0-5,1.1-5,3.1c0,1.4,0.9,2.2,2.6,3L160.5,39z"/>
<path fill="#5D5D5D" d="M192.9,39.2c0,7.8-5.3,13.2-12.3,13.2c-6.6,0-10.8-4.9-10.8-11.8c0-7.8,5.3-13.2,12.2-13.2
	C188.7,27.4,192.9,32.3,192.9,39.2z M174.4,40.2c0,5.3,2.8,8.9,6.8,8.9c4.2,0,7.3-3.9,7.3-9.5c0-5.3-2.8-8.9-6.8-8.9
	C177.4,30.7,174.3,34.6,174.4,40.2z"/>
<path fill="#5D5D5D" d="M222.4,48.8c1.6,0.4,3.4,0.7,4.7,0.8c0,0.8-0.2,1.6-0.4,2.4H218V36.6c0-3.5-1.2-5.5-3.8-5.5
	c-4.2,0-7.8,5.3-7.8,12.6v5.2c1.4,0.3,3,0.6,4.2,0.6c0,0.8-0.2,1.6-0.4,2.4h-3.8h-4.5h-4.3c-0.1-0.8-0.4-1.6-0.4-2.4
	c1.3-0.1,3.1-0.3,4.7-0.8V37.4c0-2-0.1-4.1-0.3-5.7c-1.2,0.2-2.7,0.3-4,0.3c-0.3-0.6-0.4-1.6-0.4-2.4c2-0.3,4.5-0.8,7-2.2h0.9
	c0,0,0.9,3.2,1.2,7.7c1.9-4.7,5.5-7.7,9.8-7.7c4.4,0,6.4,3.1,6.4,8.2V48.8z"/>
<path fill="#5D5D5D" d="M230,18.9c7.3,0,10,2.5,10,8c0,2.3-0.5,4.7-0.5,6.8c0,3.6,1.4,4.5,3.9,4.5c0.2,0.5,0.2,1,0.2,1.5
	c0,0.6-0.1,1.2-0.2,1.7c-2.3,0.1-3.8,1-3.8,4.8c0,2,0.4,4.6,0.4,6.7c0,5.2-2.6,7.8-10,7.8c-0.2-0.5-0.3-1-0.3-1.5
	c0-0.5,0.1-1.1,0.3-1.7c3.8,0,5.9-1.6,5.9-5.8c0-2.1-0.5-3.8-0.5-6c0-3.5,1.4-5.2,3.4-6c-2-0.8-3.4-2.4-3.4-5.9
	c0-2.2,0.5-3.9,0.5-6.1c0-4.1-2.1-5.8-5.9-5.8c-0.2-0.5-0.2-1-0.2-1.5C229.8,20,229.9,19.4,230,18.9L230,18.9z"/>
</svg>
