<svg id="svgson" xmlns="http://www.w3.org/2000/svg" viewBox="0 0 266.7 78">
  <path d="M26.9,39.7l20.5,8.4v3.6L23,41.3V38.1L47.4,27.6v3.6Z" fill="#231f20"/>
  <path d="M66.6,39c3,1.5,4.7,3.3,4.7,6.4s-3.8,7-9.1,7A21.1,21.1,0,0,1,54.8,51V45.4a13.9,13.9,0,0,1,2.4-.4,27.8,27.8,0,0,0,.5,3.5,16.9,16.9,0,0,0,4.2.7c2.8,0,5-1.1,5-3.4s-1-2.5-2.4-3.3L59.5,40c-2.8-1.4-4.1-3.2-4.1-5.9s3.5-6.7,8.9-6.7a20.4,20.4,0,0,1,6.2,1.1v5.7a13.9,13.9,0,0,1-2.4.4,27.8,27.8,0,0,0-.5-3.6l-2.9-.3c-3.1,0-5,1.1-5,3.1s0.9,2.2,2.6,3Z" fill="#231f20"/>
  <path d="M97.8,30.7c-0.3.8-.8,2.3-1.4,3.8L89.2,51.9a19.8,19.8,0,0,1-4.3.2L77.3,33.3a19.6,19.6,0,0,1-.8-2.5,10.7,10.7,0,0,0-2.5-.4,15.2,15.2,0,0,1,.4-2.4h2l3.8-.3,6.5,17.2c0.3,0.8.6,2.2,0.8,3.1A161.7,161.7,0,0,1,94,31a31,31,0,0,0-4.6-.7,15.1,15.1,0,0,1,.4-2.4h9.9a15.1,15.1,0,0,1,.4,2.4Z" fill="#231f20"/>
  <path d="M118.3,48.5c4.3,0.4,6.1,2.2,6.1,5.4,0,5.4-5.3,9.1-12.5,9.1s-10.1-2.5-10.1-6.3,2.5-4.9,4.8-6a4.4,4.4,0,0,1-2.9-3.9c0-2.4,2.3-3.7,3.6-4.3a7.4,7.4,0,0,1-3.8-6.6c0-4.9,4-8.3,9.3-8.4a11.9,11.9,0,0,1,4.3.7,28.5,28.5,0,0,1,6-3,2.3,2.3,0,0,1,1.1,1.9,43.7,43.7,0,0,1-3.9,2.9,7.7,7.7,0,0,1,2.9,5.9c0,4.4-3.9,8-10,8a12.9,12.9,0,0,1-3.7-.5,2.4,2.4,0,0,0-1.5,2.1c0,1.3,1.2,2.2,3.8,2.4Zm2.3,6.4c0-1.6-1.2-2.5-3.5-2.7l-7.3-.7h-0.1c-1.5.7-3.7,2-3.7,4.2s2.5,4,6.6,4S120.6,57.7,120.6,54.9ZM113,30.4a5.2,5.2,0,0,0-5.1,5.4c0,3.3,2.6,5.1,5.5,5.1a5.2,5.2,0,0,0,5.4-5.4c0-3.3-2.6-5.3-5.8-5.1h0Z" fill="#231f20"/>
  <path d="M130.1,59.6l13.6-41.8h3.7L133.8,59.6h-3.7Z" fill="#231f20"/>
  <path d="M160.5,39c3,1.5,4.7,3.3,4.7,6.4s-3.8,7-9.1,7a21.1,21.1,0,0,1-7.5-1.4V45.4a13.9,13.9,0,0,1,2.4-.4,27.8,27.8,0,0,0,.5,3.5,16.9,16.9,0,0,0,4.2.7c2.8,0,5-1.1,5-3.4s-1-2.5-2.4-3.3L153.5,40c-2.8-1.4-4.1-3.2-4.1-5.9s3.5-6.7,8.9-6.7a20.4,20.4,0,0,1,6.2,1.1v5.7a13.9,13.9,0,0,1-2.4.4,27.8,27.8,0,0,0-.5-3.6l-2.9-.3c-3.1,0-5,1.1-5,3.1s0.9,2.2,2.6,3Z" fill="#5d5d5d"/>
  <path d="M192.9,39.2c0,7.8-5.3,13.2-12.3,13.2s-10.8-4.9-10.8-11.8,5.3-13.2,12.2-13.2S192.9,32.3,192.9,39.2Zm-18.6,1c0,5.3,2.8,8.9,6.8,8.9s7.3-3.9,7.3-9.5-2.8-8.9-6.8-8.9S174.3,34.6,174.4,40.2Z" fill="#5d5d5d"/>
  <path d="M222.4,48.8a27.4,27.4,0,0,0,4.7.8,13.9,13.9,0,0,1-.4,2.4H218V36.6c0-3.5-1.2-5.5-3.8-5.5-4.2,0-7.8,5.3-7.8,12.6v5.2a27.7,27.7,0,0,0,4.2.6,13.9,13.9,0,0,1-.4,2.4H197.6a13.9,13.9,0,0,1-.4-2.4,27.5,27.5,0,0,0,4.7-.8V37.4c0-2-.1-4.1-0.3-5.7a16.4,16.4,0,0,1-4,.3,6.8,6.8,0,0,1-.4-2.4,19.7,19.7,0,0,0,7-2.2h0.9a39.2,39.2,0,0,1,1.2,7.7c1.9-4.7,5.5-7.7,9.8-7.7s6.4,3.1,6.4,8.2V48.8Z" fill="#5d5d5d"/>
  <path d="M230,18.9c7.3,0,10,2.5,10,8,0,2.3-.5,4.7-0.5,6.8s1.4,4.5,3.9,4.5a5,5,0,0,1,.2,1.5,7.3,7.3,0,0,1-.2,1.7c-2.3.1-3.8,1-3.8,4.8,0,2,.4,4.6.4,6.7,0,5.2-2.6,7.8-10,7.8a4.2,4.2,0,0,1-.3-1.5,5.9,5.9,0,0,1,.3-1.7c3.8,0,5.9-1.6,5.9-5.8,0-2.1-.5-3.8-0.5-6s1.4-5.2,3.4-6c-2-.8-3.4-2.4-3.4-5.9s0.5-3.9.5-6.1c0-4.1-2.1-5.8-5.9-5.8a4.6,4.6,0,0,1-.2-1.5,6.2,6.2,0,0,1,.2-1.7h0Z" fill="#5d5d5d"/>
</svg>
